<svg width="467" height="135" viewBox="0 0 467 135" fill="none" xmlns="http://www.w3.org/2000/svg">
<path d="M37.9099 91.48C30.2939 91.48 23.6699 90.104 18.0379 87.352C12.4059 84.536 8.08588 80.568 5.07788 75.448C2.06988 70.328 0.565875 64.376 0.565875 57.592C0.565875 48.184 2.32588 39.832 5.84588 32.536C9.42988 25.24 14.2619 19.608 20.3419 15.64C26.4219 11.608 33.1739 9.592 40.5979 9.592C47.5099 9.592 52.7579 11.384 56.3419 14.968C59.9259 18.488 61.7179 23.16 61.7179 28.984C61.7179 32.888 61.0139 36.024 59.6059 38.392C58.2619 40.76 56.3099 41.944 53.7499 41.944C51.9579 41.944 50.5499 41.528 49.5259 40.696C48.5019 39.864 47.9899 38.648 47.9899 37.048C47.9899 36.472 48.1179 35.416 48.3739 33.88C48.7579 31.96 48.9499 30.424 48.9499 29.272C48.9499 23.448 45.8459 20.536 39.6379 20.536C35.4139 20.536 31.3819 21.912 27.5419 24.664C23.7019 27.416 20.5979 31.48 18.2299 36.856C15.8619 42.168 14.6779 48.504 14.6779 55.864C14.6779 63.544 16.8219 69.496 21.1099 73.72C25.3979 77.88 31.7339 79.96 40.1179 79.96C44.2779 79.96 48.4699 79.448 52.6939 78.424C56.9819 77.336 61.7179 75.704 66.9019 73.528C67.8619 73.144 68.6619 72.952 69.3019 72.952C70.3259 72.952 71.0939 73.336 71.6059 74.104C72.1179 74.872 72.3739 75.864 72.3739 77.08C72.3739 80.984 70.2619 83.864 66.0379 85.72C61.4939 87.704 56.7579 89.176 51.8299 90.136C46.9659 91.032 42.3259 91.48 37.9099 91.48ZM77.4184 39.928C74.7304 39.928 72.7144 39.32 71.3704 38.104C70.0264 36.824 69.3544 35.064 69.3544 32.824C69.3544 30.584 70.2184 28.728 71.9464 27.256C73.7384 25.72 75.9464 24.952 78.5704 24.952C80.9384 24.952 82.8584 25.528 84.3304 26.68C85.8024 27.832 86.5384 29.464 86.5384 31.576C86.5384 34.136 85.7064 36.184 84.0424 37.72C82.3784 39.192 80.1704 39.928 77.4184 39.928ZM76.6504 91.48C72.4904 91.48 69.4504 90.008 67.5304 87.064C65.6744 84.12 64.7464 80.216 64.7464 75.352C64.7464 72.472 65.0984 68.792 65.8024 64.312C66.5704 59.768 67.5304 55.544 68.6824 51.64C69.2584 49.592 70.0264 48.184 70.9864 47.416C71.9464 46.648 73.4824 46.264 75.5944 46.264C78.8584 46.264 80.4904 47.352 80.4904 49.528C80.4904 51.128 79.8824 54.84 78.6664 60.664C77.1304 67.704 76.3624 72.472 76.3624 74.968C76.3624 76.888 76.6184 78.36 77.1304 79.384C77.6424 80.408 78.5064 80.92 79.7224 80.92C80.8744 80.92 82.3144 80.12 84.0424 78.52C85.7704 76.92 88.0744 74.392 90.9544 70.936C91.7224 70.04 92.5864 69.592 93.5464 69.592C94.3784 69.592 95.0184 69.976 95.4664 70.744C95.9784 71.512 96.2344 72.568 96.2344 73.912C96.2344 76.472 95.6264 78.456 94.4104 79.864C88.0744 87.608 82.1544 91.48 76.6504 91.48ZM95.2834 91.48C92.8514 91.48 91.1234 90.2 90.0994 87.64C89.1394 85.08 88.6594 80.984 88.6594 75.352C88.6594 67.032 89.8434 59.128 92.2114 51.64C92.7874 49.784 93.7154 48.44 94.9954 47.608C96.3394 46.712 98.1954 46.264 100.563 46.264C101.843 46.264 102.739 46.424 103.251 46.744C103.763 47.064 104.019 47.672 104.019 48.568C104.019 49.592 103.539 51.896 102.579 55.48C101.939 58.04 101.427 60.28 101.043 62.2C100.659 64.12 100.339 66.488 100.083 69.304C102.195 63.8 104.563 59.32 107.187 55.864C109.811 52.408 112.371 49.944 114.867 48.472C117.427 47 119.763 46.264 121.875 46.264C126.035 46.264 128.115 48.344 128.115 52.504C128.115 53.336 127.827 55.352 127.251 58.552C126.739 61.112 126.483 62.712 126.483 63.352C126.483 65.592 127.283 66.712 128.883 66.712C130.675 66.712 132.979 65.304 135.795 62.488C136.627 61.656 137.491 61.24 138.387 61.24C139.219 61.24 139.859 61.624 140.307 62.392C140.819 63.096 141.075 64.056 141.075 65.272C141.075 67.64 140.435 69.496 139.155 70.84C137.363 72.696 135.251 74.296 132.819 75.64C130.451 76.92 127.923 77.56 125.235 77.56C121.843 77.56 119.251 76.696 117.459 74.968C115.731 73.24 114.867 70.904 114.867 67.96C114.867 67 114.963 66.04 115.155 65.08C115.283 63.8 115.347 62.936 115.347 62.488C115.347 61.464 114.995 60.952 114.291 60.952C113.331 60.952 112.051 62.04 110.451 64.216C108.915 66.328 107.379 69.144 105.843 72.664C104.307 76.184 103.059 79.896 102.099 83.8C101.395 86.808 100.563 88.856 99.6034 89.944C98.7074 90.968 97.2674 91.48 95.2834 91.48ZM150.491 91.48C144.219 91.48 139.323 89.72 135.803 86.2C132.347 82.616 130.619 77.912 130.619 72.088C130.619 66.904 131.643 62.36 133.691 58.456C135.739 54.552 138.395 51.544 141.659 49.432C144.923 47.32 148.347 46.264 151.931 46.264C155.451 46.264 158.171 47.32 160.091 49.432C162.075 51.48 163.067 54.136 163.067 57.4C163.067 60.088 162.459 62.36 161.243 64.216C160.091 66.072 158.555 67 156.635 67C155.419 67 154.427 66.712 153.659 66.136C152.955 65.56 152.603 64.76 152.603 63.736C152.603 63.288 152.667 62.776 152.795 62.2C152.923 61.624 153.019 61.208 153.083 60.952C153.403 59.992 153.563 59.096 153.563 58.264C153.563 57.432 153.339 56.792 152.891 56.344C152.507 55.896 151.931 55.672 151.163 55.672C149.691 55.672 148.315 56.344 147.035 57.688C145.755 58.968 144.731 60.728 143.963 62.968C143.195 65.208 142.811 67.672 142.811 70.36C142.811 77.784 146.043 81.496 152.507 81.496C155.131 81.496 157.947 80.632 160.955 78.904C164.027 77.112 167.035 74.456 169.979 70.936C170.747 70.04 171.611 69.592 172.571 69.592C173.403 69.592 174.043 69.976 174.491 70.744C175.003 71.512 175.259 72.568 175.259 73.912C175.259 76.344 174.651 78.328 173.435 79.864C170.427 83.576 166.811 86.456 162.587 88.504C158.427 90.488 154.395 91.48 150.491 91.48ZM203.883 69.592C204.715 69.592 205.355 69.976 205.803 70.744C206.315 71.512 206.571 72.568 206.571 73.912C206.571 76.472 205.963 78.456 204.747 79.864C201.995 83.256 198.987 86.04 195.723 88.216C192.523 90.392 188.875 91.48 184.779 91.48C179.147 91.48 174.955 88.92 172.203 83.8C169.515 78.68 168.171 72.056 168.171 63.928C168.171 56.12 169.163 47.224 171.147 37.24C173.195 27.256 176.171 18.68 180.075 11.512C184.043 4.34399 188.747 0.759995 194.187 0.759995C197.259 0.759995 199.659 2.2 201.387 5.08C203.179 7.896 204.075 11.96 204.075 17.272C204.075 24.888 201.963 33.72 197.739 43.768C193.515 53.816 187.787 63.768 180.555 73.624C181.003 76.248 181.739 78.136 182.763 79.288C183.787 80.376 185.131 80.92 186.795 80.92C189.419 80.92 191.723 80.184 193.707 78.712C195.691 77.176 198.219 74.584 201.291 70.936C202.059 70.04 202.923 69.592 203.883 69.592ZM192.075 10.264C190.603 10.264 188.939 12.92 187.083 18.232C185.227 23.544 183.595 30.136 182.187 38.008C180.779 45.88 180.011 53.432 179.883 60.664C184.427 53.176 188.043 45.688 190.731 38.2C193.419 30.648 194.763 23.768 194.763 17.56C194.763 12.696 193.867 10.264 192.075 10.264ZM241.627 69.592C242.459 69.592 243.099 69.976 243.547 70.744C244.059 71.512 244.315 72.568 244.315 73.912C244.315 76.472 243.707 78.456 242.491 79.864C240.123 82.744 236.763 85.4 232.411 87.832C228.123 90.264 223.515 91.48 218.587 91.48C211.867 91.48 206.651 89.656 202.939 86.008C199.227 82.36 197.371 77.368 197.371 71.032C197.371 66.616 198.299 62.52 200.155 58.744C202.011 54.904 204.571 51.864 207.835 49.624C211.163 47.384 214.907 46.264 219.067 46.264C222.779 46.264 225.755 47.384 227.995 49.624C230.235 51.8 231.355 54.776 231.355 58.552C231.355 62.968 229.755 66.776 226.555 69.976C223.419 73.112 218.075 75.608 210.523 77.464C212.123 80.408 215.163 81.88 219.643 81.88C222.523 81.88 225.787 80.888 229.435 78.904C233.147 76.856 236.347 74.2 239.035 70.936C239.803 70.04 240.667 69.592 241.627 69.592ZM217.435 55.672C215.067 55.672 213.051 57.048 211.387 59.8C209.787 62.552 208.987 65.88 208.987 69.784V69.976C212.763 69.08 215.739 67.736 217.915 65.944C220.091 64.152 221.179 62.072 221.179 59.704C221.179 58.488 220.827 57.528 220.123 56.824C219.483 56.056 218.587 55.672 217.435 55.672ZM263.283 91.768C254.771 91.768 247.955 90.168 242.835 86.968C237.715 83.704 235.155 78.744 235.155 72.088C235.155 68.568 235.763 65.88 236.979 64.024C238.195 62.168 239.987 61.24 242.355 61.24C244.083 61.24 245.491 61.688 246.579 62.584C247.667 63.48 248.211 64.632 248.211 66.04C248.211 67.32 248.115 68.44 247.923 69.4C247.923 69.656 247.859 70.104 247.731 70.744C247.667 71.384 247.635 72.056 247.635 72.76C247.635 75.64 249.075 77.784 251.955 79.192C254.899 80.6 258.995 81.304 264.243 81.304C269.683 81.304 273.939 80.344 277.011 78.424C280.083 76.44 281.619 73.688 281.619 70.168C281.619 67.992 280.915 66.136 279.507 64.6C278.099 63 276.339 61.688 274.227 60.664C272.115 59.576 269.139 58.264 265.299 56.728C260.371 54.808 256.339 52.984 253.203 51.256C250.131 49.528 247.475 47.192 245.235 44.248C243.059 41.24 241.971 37.528 241.971 33.112C241.971 28.504 243.187 24.408 245.619 20.824C248.115 17.24 251.667 14.456 256.275 12.472C260.947 10.488 266.419 9.496 272.691 9.496C277.363 9.496 281.651 10.2 285.555 11.608C289.459 12.952 292.563 15.032 294.867 17.848C297.235 20.664 298.419 24.12 298.419 28.216C298.419 32.248 297.811 35.288 296.595 37.336C295.379 39.384 293.587 40.408 291.219 40.408C289.555 40.408 288.147 39.896 286.995 38.872C285.907 37.848 285.363 36.632 285.363 35.224C285.363 34.008 285.459 32.888 285.651 31.864C285.843 29.944 285.939 28.728 285.939 28.216C285.939 25.528 284.627 23.48 282.003 22.072C279.379 20.664 276.115 19.96 272.211 19.96C266.707 19.96 262.483 20.984 259.539 23.032C256.659 25.016 255.219 27.832 255.219 31.48C255.219 33.912 255.955 35.992 257.427 37.72C258.963 39.448 260.851 40.888 263.091 42.04C265.331 43.192 268.467 44.568 272.499 46.168C277.363 48.152 281.267 49.944 284.211 51.544C287.155 53.144 289.651 55.32 291.699 58.072C293.811 60.824 294.867 64.216 294.867 68.248C294.867 75.8 291.987 81.624 286.227 85.72C280.531 89.752 272.883 91.768 263.283 91.768ZM354.325 69.592C355.157 69.592 355.797 69.976 356.245 70.744C356.757 71.512 357.013 72.568 357.013 73.912C357.013 76.472 356.405 78.456 355.189 79.864C352.437 83.256 349.461 86.04 346.261 88.216C343.125 90.392 339.541 91.48 335.509 91.48C332.117 91.48 329.365 90.264 327.253 87.832C323.605 90.2 319.797 91.416 315.829 91.48C314.997 103.832 313.109 114.136 310.165 122.392C307.221 130.712 302.901 134.872 297.205 134.872C293.749 134.872 291.189 133.624 289.525 131.128C287.861 128.632 287.029 125.176 287.029 120.76C287.029 114.488 288.469 107.16 291.349 98.776C294.229 90.456 298.677 81.272 304.693 71.224C304.693 61.88 304.629 55.384 304.501 51.736C304.437 49.88 305.173 48.408 306.709 47.32C308.245 46.232 310.165 45.688 312.469 45.688C313.813 45.688 314.773 45.976 315.349 46.552C315.989 47.064 316.341 48.12 316.405 49.72C316.405 51.32 316.437 52.504 316.501 53.272C318.549 50.712 320.565 48.888 322.549 47.8C324.533 46.648 326.645 46.072 328.885 46.072C332.469 46.072 335.381 47.512 337.621 50.392C339.925 53.272 341.077 57.048 341.077 61.72C341.077 65.112 340.533 68.408 339.445 71.608C338.357 74.808 336.853 77.72 334.933 80.344C336.277 80.728 337.397 80.92 338.293 80.92C340.405 80.92 342.421 80.152 344.341 78.616C346.261 77.08 348.725 74.52 351.733 70.936C352.501 70.04 353.365 69.592 354.325 69.592ZM316.309 82.264C318.613 81.752 320.725 80.504 322.645 78.52C324.629 76.472 326.197 73.976 327.349 71.032C328.501 68.024 329.077 64.888 329.077 61.624C329.077 59.704 328.693 58.264 327.925 57.304C327.157 56.28 326.133 55.768 324.853 55.768C322.549 55.768 319.765 58.2 316.501 63.064C316.437 65.88 316.405 70.008 316.405 75.448C316.405 78.392 316.373 80.664 316.309 82.264ZM297.973 125.464C299.701 125.464 301.141 121.688 302.293 114.136C303.445 106.648 304.181 97.304 304.501 86.104C301.749 92.504 299.573 98.616 297.973 104.44C296.373 110.264 295.573 115.16 295.573 119.128C295.573 121.176 295.829 122.744 296.341 123.832C296.789 124.92 297.333 125.464 297.973 125.464ZM361.088 91.48C357.12 91.48 353.952 90.04 351.584 87.16C349.216 84.28 348.032 80.504 348.032 75.832C348.032 70.712 349.216 65.88 351.584 61.336C353.952 56.728 357.088 53.048 360.992 50.296C364.96 47.48 369.152 46.072 373.568 46.072C374.976 46.072 375.904 46.36 376.352 46.936C376.864 47.448 377.28 48.408 377.6 49.816C378.944 49.56 380.352 49.432 381.824 49.432C384.96 49.432 386.528 50.552 386.528 52.792C386.528 54.136 386.048 57.336 385.088 62.392C383.616 69.752 382.88 74.872 382.88 77.752C382.88 78.712 383.104 79.48 383.552 80.056C384.064 80.632 384.704 80.92 385.472 80.92C386.688 80.92 388.16 80.152 389.888 78.616C391.616 77.016 393.952 74.456 396.896 70.936C397.664 70.04 398.528 69.592 399.488 69.592C400.32 69.592 400.96 69.976 401.408 70.744C401.92 71.512 402.176 72.568 402.176 73.912C402.176 76.472 401.568 78.456 400.352 79.864C397.728 83.128 394.944 85.88 392 88.12C389.056 90.36 386.208 91.48 383.456 91.48C381.344 91.48 379.392 90.776 377.6 89.368C375.872 87.896 374.56 85.912 373.664 83.416C370.336 88.792 366.144 91.48 361.088 91.48ZM364.544 81.784C365.952 81.784 367.296 80.952 368.576 79.288C369.856 77.624 370.784 75.416 371.36 72.664L374.912 55C372.224 55.064 369.728 56.088 367.424 58.072C365.184 59.992 363.392 62.552 362.048 65.752C360.704 68.952 360.032 72.344 360.032 75.928C360.032 77.912 360.416 79.384 361.184 80.344C362.016 81.304 363.136 81.784 364.544 81.784ZM412.71 91.48C406.438 91.48 401.542 89.72 398.022 86.2C394.566 82.616 392.838 77.912 392.838 72.088C392.838 66.904 393.862 62.36 395.91 58.456C397.958 54.552 400.614 51.544 403.878 49.432C407.142 47.32 410.566 46.264 414.15 46.264C417.67 46.264 420.39 47.32 422.31 49.432C424.294 51.48 425.286 54.136 425.286 57.4C425.286 60.088 424.678 62.36 423.462 64.216C422.31 66.072 420.774 67 418.854 67C417.638 67 416.646 66.712 415.878 66.136C415.174 65.56 414.822 64.76 414.822 63.736C414.822 63.288 414.886 62.776 415.014 62.2C415.142 61.624 415.238 61.208 415.302 60.952C415.622 59.992 415.782 59.096 415.782 58.264C415.782 57.432 415.558 56.792 415.11 56.344C414.726 55.896 414.15 55.672 413.382 55.672C411.91 55.672 410.534 56.344 409.254 57.688C407.974 58.968 406.95 60.728 406.182 62.968C405.414 65.208 405.03 67.672 405.03 70.36C405.03 77.784 408.262 81.496 414.726 81.496C417.35 81.496 420.166 80.632 423.174 78.904C426.246 77.112 429.254 74.456 432.198 70.936C432.966 70.04 433.83 69.592 434.79 69.592C435.622 69.592 436.262 69.976 436.71 70.744C437.222 71.512 437.478 72.568 437.478 73.912C437.478 76.344 436.87 78.328 435.654 79.864C432.646 83.576 429.03 86.456 424.806 88.504C420.646 90.488 416.614 91.48 412.71 91.48ZM464.085 72.472C464.917 72.472 465.557 72.856 466.005 73.624C466.517 74.392 466.773 75.448 466.773 76.792C466.773 79.096 466.229 81.08 465.141 82.744C463.349 85.496 460.981 87.64 458.037 89.176C455.157 90.712 451.701 91.48 447.669 91.48C441.525 91.48 436.757 89.656 433.365 86.008C429.973 82.296 428.277 77.304 428.277 71.032C428.277 66.616 429.205 62.52 431.061 58.744C432.917 54.904 435.477 51.864 438.741 49.624C442.069 47.384 445.813 46.264 449.973 46.264C453.685 46.264 456.661 47.384 458.901 49.624C461.141 51.8 462.261 54.776 462.261 58.552C462.261 62.968 460.661 66.776 457.461 69.976C454.325 73.112 448.949 75.608 441.333 77.464C442.869 80.408 445.461 81.88 449.109 81.88C451.733 81.88 453.877 81.272 455.541 80.056C457.269 78.84 459.253 76.792 461.493 73.912C462.261 72.952 463.125 72.472 464.085 72.472ZM448.341 55.672C445.973 55.672 443.957 57.048 442.293 59.8C440.693 62.552 439.893 65.88 439.893 69.784V69.976C443.669 69.08 446.645 67.736 448.821 65.944C450.997 64.152 452.085 62.072 452.085 59.704C452.085 58.488 451.733 57.528 451.029 56.824C450.389 56.056 449.493 55.672 448.341 55.672Z" fill="#E97A7A"/>
</svg>
